<svg xmlns="http://www.w3.org/2000/svg" width="70.289" height="50" viewBox="0 0 70.289 50">
  <g id="noun_3D_2573809" transform="translate(-2.402 53.752)">
    <g id="그룹_24" data-name="그룹 24" transform="translate(2.402 -53.752)">
      <path id="패스_54" data-name="패스 54" d="M37.535-53.752,55.678-45.4,37.535-37,19.391-45.4Z" transform="translate(-2.386 53.752)"/>
      <path id="패스_55" data-name="패스 55" d="M29.883-12.334v-9.45l7.2,4.725Z" transform="translate(-2.376 53.782)"/>
      <path id="패스_56" data-name="패스 56" d="M29.354-24.986a1.2,1.2,0,0,0-1.227-.053,1.2,1.2,0,0,0-.629,1.055v5.477a83.711,83.711,0,0,1-9.739-1.465v-23.57l18.58,8.618v14.517Z" transform="translate(-2.387 53.761)"/>
      <path id="패스_57" data-name="패스 57" d="M2.4-28.707c0-1.882,1.978-3.493,3.631-4.513a34.479,34.479,0,0,1,9.342-3.639v16.315C6.833-22.73,2.4-25.963,2.4-28.708Z" transform="translate(-2.402 53.768)"/>
      <path id="패스_58" data-name="패스 58" d="M17.757-17.56A86.471,86.471,0,0,0,27.5-16.122v6a1.2,1.2,0,0,0,.629,1.055,1.2,1.2,0,0,0,1.227-.053L36.337-13.7v9.91l-18.58-8.561Z" transform="translate(-2.387 53.785)"/>
      <path id="패스_59" data-name="패스 59" d="M57.3-12.323,38.715-3.762V-15.244l1.208-.792a1.2,1.2,0,0,0,.541-1,1.2,1.2,0,0,0-.541-1l-1.208-.792v-16.09L57.3-43.541v23.557a85.246,85.246,0,0,1-11.478,1.626,1.2,1.2,0,0,0-1.105,1.246,1.2,1.2,0,0,0,1.206,1.148c.031,0,.051,0,.083,0A89.217,89.217,0,0,0,57.3-17.545Z" transform="translate(-2.368 53.761)"/>
      <path id="패스_60" data-name="패스 60" d="M65.425-22.411a46.346,46.346,0,0,1-5.752,1.855V-36.9c8.091,2.047,12.965,5.138,12.965,8.192,0,2.133-2.625,4.428-7.213,6.3Z" transform="translate(-2.349 53.768)"/>
      <path id="패스_61" data-name="패스 61" d="M65.42-22.424" transform="translate(-2.343 53.781)"/>
    </g>
  </g>
</svg>
