<svg xmlns="http://www.w3.org/2000/svg" width="57.005" height="50" viewBox="0 0 57.005 50">
  <g id="noun_artifical_intelligence_2277718" data-name="noun_artifical intelligence_2277718" transform="translate(0 0)">
    <g id="그룹_18" data-name="그룹 18" transform="translate(0 0)">
      <path id="패스_37" data-name="패스 37" d="M45.114,63.219a1.361,1.361,0,0,1-1-.438L35.691,53.64h-9.83A1.359,1.359,0,0,1,24.707,53l-5.486-8.816-9.2-3.5a1.359,1.359,0,0,1-.869-1.137L8.073,28.558a1.36,1.36,0,0,1,.383-1.085l10.331-10.52a1.361,1.361,0,0,1,.633-.365l13.024-3.327a1.356,1.356,0,0,1,.4-.041l9.516.415a1.374,1.374,0,0,1,.527.131L53.7,18.933a1.354,1.354,0,0,1,.445.341L62.3,28.759a1.361,1.361,0,0,1,.3.591L65.039,40.34a1.355,1.355,0,0,1-.178,1.021l-6.292,9.956a1.342,1.342,0,0,1-1.317.623l-9.575-1.187-1.429,3.56.225,7.507a1.359,1.359,0,0,1-1.358,1.4Zm-18.5-12.3h9.671a1.357,1.357,0,0,1,1,.438l6.359,6.9-.124-4.151a1.348,1.348,0,0,1,.1-.547l1.925-4.8a1.354,1.354,0,0,1,1.429-.842l9.758,1.209,5.532-8.753L60.016,30.273,52.27,21.263,41.961,16.339l-9.039-.394L20.46,19.129l-9.62,9.8.936,9.517L20.616,41.8a1.359,1.359,0,0,1,.671.553Z" transform="translate(-8.066 -13.219)"/>
      <path id="패스_38" data-name="패스 38" d="M23.458,36.048a1.36,1.36,0,0,1-.539-.111L8.886,29.868a1.36,1.36,0,1,1,1.079-2.5l13.169,5.695L41.319,14.244a1.359,1.359,0,0,1,1.955,1.889l-18.839,19.5A1.36,1.36,0,0,1,23.458,36.048Z" transform="translate(-8.065 -13.415)"/>
      <path id="패스_39" data-name="패스 39" d="M33.607,60.74a1.36,1.36,0,0,1-.82-2.445l12.727-9.607a1.427,1.427,0,0,1,.142-.094L68.337,35.567a1.359,1.359,0,0,1,1.354,2.357L47.083,50.91,34.425,60.466A1.357,1.357,0,0,1,33.607,60.74Z" transform="translate(-15.81 -20.319)"/>
      <path id="패스_40" data-name="패스 40" d="M66.492,46.866l-.075,0L43.381,45.6a1.382,1.382,0,0,1-.572-.161L27.68,37.256a1.357,1.357,0,0,1-.68-.9L23.3,19.769a1.36,1.36,0,0,1,2.654-.592l3.567,15.982L43.835,42.9l22.731,1.249a1.359,1.359,0,0,1-.073,2.717Z" transform="translate(-12.934 -14.786)"/>
      <ellipse id="타원_24" data-name="타원 24" cx="5.036" cy="5.036" rx="5.036" ry="5.036" transform="translate(25.428 24.452)"/>
      <ellipse id="타원_25" data-name="타원 25" cx="5.036" cy="5.036" rx="5.036" ry="5.036" transform="translate(10.502 15.859)"/>
      <path id="패스_41" data-name="패스 41" d="M75.641,32.2,57.829,28.927,56.442,17.347l2.7-.324,1.149,9.593,15.841,2.911Z" transform="translate(-23.56 -14.437)"/>
      <ellipse id="타원_26" data-name="타원 26" cx="5.036" cy="5.036" rx="5.036" ry="5.036" transform="translate(29.862 9.302)"/>
      <g id="그룹_14" data-name="그룹 14" transform="translate(29.201 14.016)">
        <line id="선_1" data-name="선 1" x1="3.709" y2="15.115" transform="translate(1.321 0.323)"/>
        <rect id="사각형_79" data-name="사각형 79" width="2.719" height="15.564" transform="matrix(0.971, 0.238, -0.238, 0.971, 3.709, 0)"/>
      </g>
      <g id="그룹_15" data-name="그룹 15" transform="translate(10.797 20.405)">
        <line id="선_2" data-name="선 2" y1="8.96" x2="3.471" transform="translate(1.27 0.491)"/>
        <rect id="사각형_80" data-name="사각형 80" width="2.719" height="9.609" transform="matrix(0.932, 0.361, -0.361, 0.932, 3.473, 0)"/>
      </g>
      <g id="그룹_16" data-name="그룹 16" transform="translate(15.048 12.747)">
        <line id="선_3" data-name="선 3" y1="7.473" x2="19.359" transform="translate(0.49 1.268)"/>
        <rect id="사각형_81" data-name="사각형 81" width="2.719" height="20.752" transform="translate(19.359 0) rotate(68.893)"/>
      </g>
      <g id="그룹_17" data-name="그룹 17" transform="translate(29.948 32.57)">
        <line id="선_4" data-name="선 4" x1="4.985" y1="13.481" transform="translate(1.274 0.473)"/>
        <rect id="사각형_82" data-name="사각형 82" width="14.373" height="2.719" transform="translate(2.55 0) rotate(69.708)"/>
      </g>
    </g>
  </g>
</svg>
