<svg id="noun_Camera_3647153" xmlns="http://www.w3.org/2000/svg" width="75.758" height="50" viewBox="0 0 75.758 50">
  <g id="그룹_19" data-name="그룹 19" transform="translate(0 0)">
    <path id="패스_42" data-name="패스 42" d="M30.515,44.516,45.7,57.676V42.541A4.541,4.541,0,0,1,50.243,38H67.724a17.012,17.012,0,0,0-.832,5.3A17.405,17.405,0,0,0,91.865,58.97V74.324a4.541,4.541,0,0,1-4.541,4.541H50.243A4.541,4.541,0,0,1,45.7,74.324V59.946L30.447,72.659A4.541,4.541,0,0,1,23,69.171V47.982a4.541,4.541,0,0,1,7.515-3.466Z" transform="translate(-23 -28.865)"/>
    <path id="패스_43" data-name="패스 43" d="M32.1,54.209c-.409.114-.825.212-1.249.288a14.22,14.22,0,0,1-2.618.242h-.757l-.757-.061h-.129A3.168,3.168,0,0,1,26,54.6h0a13.993,13.993,0,0,1-4.639-1.574,14.325,14.325,0,0,1-5.2-4.8c-.106-.159-.2-.318-.3-.484a1.317,1.317,0,0,1-.083-.136c-.174-.3-.341-.605-.492-.923l-.061-.129c-.091-.189-.182-.378-.257-.575s-.212-.507-.3-.757-.129-.363-.182-.545-.129-.424-.182-.636v-.068a12.971,12.971,0,0,1-.272-1.339s0-.061,0-.091l-.068-.522a.575.575,0,0,1,0-.114c0-.235-.045-.469-.061-.711s0-.537,0-.8a14.167,14.167,0,0,1,1.014-5.3A14.378,14.378,0,1,1,35.8,52.582a13.977,13.977,0,0,1-3.7,1.627Z" transform="translate(33.066 -25.928)"/>
  </g>
</svg>
