<svg xmlns="http://www.w3.org/2000/svg" xmlns:xlink="http://www.w3.org/1999/xlink" width="120.401" height="50" viewBox="0 0 120.401 50">
  <defs>
    <clipPath id="clip-path">
      <rect width="120.401" height="50" fill="none"/>
    </clipPath>
  </defs>
  <g id="반복_그리드_1" data-name="반복 그리드 1" clip-path="url(#clip-path)">
    <path id="패스_53" data-name="패스 53" d="M120.4,20.93v5.813a.993.993,0,0,1-.529.952c-2.853,1.162-6.131,5.286-8.456,9.2A24.9,24.9,0,0,1,89.641,50a26.058,26.058,0,0,1-6.237-.845A23.678,23.678,0,0,1,68.6,37.528a24.081,24.081,0,0,1-3.171-10.677V24.42a5.233,5.233,0,0,0-10.465,0v2.43A24.081,24.081,0,0,1,51.8,37.526,24.16,24.16,0,0,1,36.891,49.154,24.7,24.7,0,0,1,30.654,50,24.731,24.731,0,0,1,8.984,36.891c-2.326-3.911-5.6-8.034-8.457-9.2A.992.992,0,0,1,0,26.743V20.93a1.043,1.043,0,0,1,.951-1.057h.527c2.537,0,4.757-1.8,6.659-5.6.318-.529.635-1.163.951-1.8A24.158,24.158,0,0,1,23.995.845,24.228,24.228,0,0,1,50.633,10.994v0a1.846,1.846,0,0,0,.423.529,1.515,1.515,0,0,0,2.008.529,12.151,12.151,0,0,1,7.083-2.643,12.732,12.732,0,0,1,7.188,2.643,1.551,1.551,0,0,0,2.008-.529c.106-.212.318-.318.424-.529v0A24.521,24.521,0,0,1,90.168,0a25.315,25.315,0,0,1,6.238.845,23.677,23.677,0,0,1,14.8,11.628,7.386,7.386,0,0,1,.951,1.8c2.22,4.017,4.228,5.6,6.659,5.6h.529A1.135,1.135,0,0,1,120.4,20.93Zm-73.572-.318a17.455,17.455,0,0,0-16.6-13A14.1,14.1,0,0,0,26,8.245,17.024,17.024,0,0,0,14.165,29.386a17.238,17.238,0,0,0,16.49,13,20.362,20.362,0,0,0,4.334-.527,16.4,16.4,0,0,0,10.149-8.034A17.444,17.444,0,0,0,46.829,20.613ZM94.4,8.245a14.625,14.625,0,0,0-4.23-.635,17.359,17.359,0,0,0-16.595,13,17.9,17.9,0,0,0,1.584,13.214,16.6,16.6,0,0,0,10.255,8.034,19.32,19.32,0,0,0,4.228.527,17.36,17.36,0,0,0,16.6-13A17.107,17.107,0,0,0,94.4,8.245Z"/>
  </g>
</svg>
