<svg xmlns="http://www.w3.org/2000/svg" width="51.202" height="50" viewBox="0 0 51.202 50">
  <g id="noun_combine_191661" transform="translate(-2.5 -4.7)">
    <g id="그룹_23" data-name="그룹 23" transform="translate(2.5 4.7)">
      <path id="패스_45" data-name="패스 45" d="M18.436,16.891H41.193V8.834A4.14,4.14,0,0,0,37.058,4.7H6.634A4.163,4.163,0,0,0,2.5,8.834V39.258a4.14,4.14,0,0,0,4.134,4.134h9.293V19.364A2.511,2.511,0,0,1,18.436,16.891Z" transform="translate(-2.5 -4.7)" fill="#030000"/>
      <path id="패스_46" data-name="패스 46" d="M74.175,39.2h-8.41V63.228a2.518,2.518,0,0,1-2.509,2.509H40.5v7.138a4.14,4.14,0,0,0,4.134,4.134H74.14a4.14,4.14,0,0,0,4.134-4.134V43.334A4.109,4.109,0,0,0,74.175,39.2Z" transform="translate(-27.072 -27.009)" fill="#030000"/>
      <path id="패스_47" data-name="패스 47" d="M66.01,55.244H59.755v-6.29A.95.95,0,0,0,58.8,48h-3a.95.95,0,0,0-.954.954v6.29h-6.29a.95.95,0,0,0-.954.954v3a.95.95,0,0,0,.954.954h6.254v6.29a.95.95,0,0,0,.954.954h3a.95.95,0,0,0,.954-.954v-6.29h6.29a.95.95,0,0,0,.954-.954v-3A.95.95,0,0,0,66.01,55.244Z" transform="translate(-31.664 -32.7)" fill="#030000"/>
    </g>
  </g>
</svg>
