<svg xmlns="http://www.w3.org/2000/svg" width="43.112" height="50" viewBox="0 0 43.112 50">
  <g id="noun_Data_3154828" transform="translate(0)">
    <g id="그룹_13" data-name="그룹 13" transform="translate(0 0)">
      <path id="패스_33" data-name="패스 33" d="M187.712,92.976c0,1.625-2.2,3.391-5.885,4.729a47.655,47.655,0,0,1-15.671,2.347A47.655,47.655,0,0,1,150.485,97.7c-3.685-1.338-5.885-3.1-5.885-4.729s2.2-3.391,5.885-4.729A47.655,47.655,0,0,1,166.156,85.9a47.655,47.655,0,0,1,15.671,2.347C185.512,89.585,187.712,91.351,187.712,92.976Z" transform="translate(-144.6 -85.9)"/>
      <path id="패스_34" data-name="패스 34" d="M187.712,278.5v7.721c0,1.625-2.2,3.391-5.885,4.729a47.655,47.655,0,0,1-15.671,2.347,47.655,47.655,0,0,1-15.671-2.347c-3.685-1.338-5.885-3.1-5.885-4.729V278.5c.229.194.481.375.745.557.088.065.182.123.276.188s.205.135.311.2l.141.088c.088.053.182.106.27.158.035.023.076.041.111.065l.194.106c.041.023.088.047.129.07.065.035.129.07.194.1s.106.053.153.082l.111.059a1.1,1.1,0,0,1,.117.059c.164.082.334.158.5.235.041.018.082.035.117.053.1.047.205.094.311.135.065.029.129.053.188.082s.129.053.194.082.129.053.194.082l.182.07c.07.029.147.059.217.082.135.053.27.106.411.153a50.1,50.1,0,0,0,16.487,2.488,49.979,49.979,0,0,0,16.475-2.488c.141-.053.276-.1.411-.153.076-.029.147-.053.217-.082l.182-.07c.065-.029.129-.053.194-.082s.129-.053.194-.082.129-.053.188-.082c.106-.047.205-.088.311-.135.041-.018.082-.035.117-.053.17-.076.34-.158.5-.235a1.1,1.1,0,0,0,.117-.059,1.022,1.022,0,0,0,.111-.059c.053-.029.106-.053.153-.082.065-.035.129-.07.194-.1.047-.023.088-.047.129-.07l.194-.106c.041-.023.076-.041.111-.065.094-.053.182-.106.27-.158l.141-.088c.106-.065.211-.129.311-.2s.182-.123.276-.188A7.018,7.018,0,0,0,187.712,278.5Z" transform="translate(-144.6 -267.2)"/>
      <path id="패스_35" data-name="패스 35" d="M187.712,482.2v7.721c0,1.625-2.2,3.391-5.885,4.729A47.655,47.655,0,0,1,166.156,497a47.655,47.655,0,0,1-15.671-2.347c-3.685-1.338-5.885-3.1-5.885-4.729V482.2a17.414,17.414,0,0,0,5.081,2.7,50.117,50.117,0,0,0,16.475,2.482,50.117,50.117,0,0,0,16.475-2.482A17.338,17.338,0,0,0,187.712,482.2Z" transform="translate(-144.6 -458.948)"/>
      <path id="패스_36" data-name="패스 36" d="M144.6,693.621V685.9a17.415,17.415,0,0,0,5.081,2.7,50.108,50.108,0,0,0,16.475,2.488,49.954,49.954,0,0,0,16.475-2.488,17.262,17.262,0,0,0,5.081-2.7v7.721c0,1.625-2.2,3.391-5.885,4.729a47.654,47.654,0,0,1-15.671,2.347,47.653,47.653,0,0,1-15.671-2.347C146.8,697.012,144.6,695.246,144.6,693.621Z" transform="translate(-144.6 -650.697)"/>
    </g>
  </g>
</svg>
