<svg xmlns="http://www.w3.org/2000/svg" width="50.97" height="50" viewBox="0 0 50.97 50">
  <g id="noun_Time_2533718" transform="translate(-0.67 -1.17)">
    <path id="패스_48" data-name="패스 48" d="M47.463,17.389,51,13.172a.97.97,0,0,0-.119-1.365l-2.854-2.4a.967.967,0,0,0-1.363.121l-3.294,3.926A20.742,20.742,0,0,0,33.94,9.648V6.166h4.208A.854.854,0,0,0,39,5.311V2.025a.854.854,0,0,0-.855-.855h-14.1a.854.854,0,0,0-.855.855V5.311a.854.854,0,0,0,.855.855h4.208V9.633a20.8,20.8,0,0,0-9.448,3.806L15.533,9.533a.967.967,0,0,0-1.363-.121l-2.854,2.4a.967.967,0,0,0-.119,1.365l3.526,4.2a20.836,20.836,0,0,0-2.85,4.8A1.693,1.693,0,0,0,14.992,23.5a17.477,17.477,0,1,1,8.117,22.358,1.694,1.694,0,1,0-1.551,3.011,20.85,20.85,0,0,0,25.9-31.477Z" transform="translate(-0.331 0)"/>
    <path id="패스_49" data-name="패스 49" d="M35.279,31.631c5.706-6.788,6.047-8.75,5.662-9.135s-2.348-.047-9.135,5.662c-3.231,2.715-2.213,4.272-1.507,4.979S32.564,34.86,35.279,31.631Z" transform="translate(-0.93 -0.682)"/>
    <path id="패스_50" data-name="패스 50" d="M20.608,29.268a1.451,1.451,0,0,0-1.452-1.452H2.122a1.452,1.452,0,0,0,0,2.9H19.157A1.45,1.45,0,0,0,20.608,29.268Z" transform="translate(0 -0.857)"/>
    <path id="패스_51" data-name="패스 51" d="M19.395,35.4H9.528a1.452,1.452,0,0,0,0,2.9h9.867a1.452,1.452,0,1,0,0-2.9Z" transform="translate(-0.238 -1.101)"/>
    <path id="패스_52" data-name="패스 52" d="M19.25,42.984H5.028a1.452,1.452,0,1,0,0,2.9H19.25a1.452,1.452,0,1,0,0-2.9Z" transform="translate(-0.093 -1.345)"/>
  </g>
</svg>
