<svg width="120" height="100" viewBox="0 0 120 100" fill="none" xmlns="http://www.w3.org/2000/svg">
<mask id="mask0" style="mask-type:alpha" maskUnits="userSpaceOnUse" x="0" y="0" width="71" height="75">
<path d="M0.5 3C0.5 1.61929 1.61929 0.5 3 0.5H67.2527C68.6334 0.5 69.7527 1.61929 69.7527 3V51.5581C69.7527 52.6582 69.0336 53.629 67.9812 53.9496L3.72856 73.5241C2.12234 74.0134 0.5 72.8117 0.5 71.1326V3Z" fill="url(#paint0_linear)" stroke="white"/>
</mask>
<g mask="url(#mask0)">
<circle cx="70.8238" cy="52.8238" r="38.3238" fill="url(#paint1_linear)" stroke="white"/>
<path d="M0.5 3C0.5 1.61929 1.61929 0.5 3 0.5H67.2527C68.6334 0.5 69.7527 1.61929 69.7527 3V51.5581C69.7527 52.6582 69.0336 53.629 67.9812 53.9496L3.72856 73.5241C2.12234 74.0134 0.5 72.8117 0.5 71.1326V3Z" fill="url(#paint2_linear)" stroke="white"/>
</g>
<circle cx="70.8238" cy="52.8233" r="38.3238" fill="url(#paint3_linear)" stroke="white"/>
<defs>
<linearGradient id="paint0_linear" x1="42.3827" y1="-1.15067e-06" x2="15.148" y2="96.6591" gradientUnits="userSpaceOnUse">
<stop stop-color="#5E32DB"/>
<stop offset="1" stop-color="#D6F8FF" stop-opacity="0"/>
</linearGradient>
<linearGradient id="paint1_linear" x1="22.6029" y1="27.5257" x2="124.873" y2="-3.17784" gradientUnits="userSpaceOnUse">
<stop offset="0.246867" stop-color="#6B44DE"/>
<stop offset="0.881983" stop-color="#2D35DE"/>
</linearGradient>
<linearGradient id="paint2_linear" x1="42.3827" y1="-1.15067e-06" x2="15.148" y2="96.6591" gradientUnits="userSpaceOnUse">
<stop stop-color="#66CC99"/>
<stop offset="1" stop-color="#AFF1FF"/>
</linearGradient>
<linearGradient id="paint3_linear" x1="22.6029" y1="27.5252" x2="124.873" y2="-3.17833" gradientUnits="userSpaceOnUse">
<stop stop-color="#019EBF"/>
<stop offset="0.881983" stop-color="#B3FFF1" stop-opacity="0"/>
</linearGradient>
</defs>
</svg>
