<svg width="120" height="101" viewBox="0 0 120 101" fill="none" xmlns="http://www.w3.org/2000/svg">
<path d="M0.5 4.37186C0.5 2.61655 2.26153 1.40779 3.89933 2.03923L71.8993 28.256C72.8638 28.6279 73.5 29.555 73.5 30.5887V64.1003C73.5 65.8556 71.7385 67.0644 70.1007 66.4329L2.10067 40.2161L1.92558 40.6703L2.10067 40.2161C1.13618 39.8443 0.5 38.9172 0.5 37.8835V4.37186Z" fill="url(#paint0_linear)" stroke="white"/>
<path d="M0.5 59.4837C0.5 58.45 1.13618 57.5229 2.10067 57.1511L70.1007 30.9342C71.7385 30.3028 73.5 31.5116 73.5 33.2669V66.7785C73.5 67.8122 72.8638 68.7393 71.8993 69.1111L3.89933 95.3279C2.26153 95.9594 0.5 94.7506 0.5 92.9953V59.4837Z" fill="url(#paint1_linear)" stroke="white"/>
<defs>
<linearGradient id="paint0_linear" x1="-8.95562" y1="11.9274" x2="87.1751" y2="-19.2629" gradientUnits="userSpaceOnUse">
<stop stop-color="#019EBF"/>
<stop offset="0.881983" stop-color="#B3FFF1" stop-opacity="0"/>
</linearGradient>
<linearGradient id="paint1_linear" x1="10" y1="85.4995" x2="107.144" y2="78.1765" gradientUnits="userSpaceOnUse">
<stop stop-color="#66CC99"/>
<stop offset="1" stop-color="#AFF1FF" stop-opacity="0.49"/>
</linearGradient>
</defs>
</svg>
