<svg width="121" height="100" viewBox="0 0 121 100" fill="none" xmlns="http://www.w3.org/2000/svg">
<mask id="path-1-inside-1" fill="white">
<path fill-rule="evenodd" clip-rule="evenodd" d="M104.732 41.4153C106.732 37.0501 108.154 32.3414 108.813 27.3759C110.84 12.1195 108.918 0 90.1026 0C78.4929 0 65.6454 9.12068 54.3065 19.7223C54.2867 19.7408 54.256 19.7409 54.2361 19.7226C54.2185 19.7062 54.1919 19.7042 54.172 19.7178C43.1729 27.1981 29.3806 31.5552 23.6446 32.5075C16.8406 32.9948 11.148 31.9086 6.48658 29.6027C4.00696 28.376 0.606105 30.1969 1.2266 32.8928C6.81149 57.1583 28.4701 75.2474 54.3369 75.2474C77.0714 75.2474 96.5551 61.2741 104.732 41.4153Z"/>
</mask>
<path fill-rule="evenodd" clip-rule="evenodd" d="M104.732 41.4153C106.732 37.0501 108.154 32.3414 108.813 27.3759C110.84 12.1195 108.918 0 90.1026 0C78.4929 0 65.6454 9.12068 54.3065 19.7223C54.2867 19.7408 54.256 19.7409 54.2361 19.7226C54.2185 19.7062 54.1919 19.7042 54.172 19.7178C43.1729 27.1981 29.3806 31.5552 23.6446 32.5075C16.8406 32.9948 11.148 31.9086 6.48658 29.6027C4.00696 28.376 0.606105 30.1969 1.2266 32.8928C6.81149 57.1583 28.4701 75.2474 54.3369 75.2474C77.0714 75.2474 96.5551 61.2741 104.732 41.4153Z" fill="url(#paint0_linear)"/>
<path d="M108.813 27.3759L107.822 27.2443V27.2443L108.813 27.3759ZM104.732 41.4153L103.823 40.9988L103.815 41.0165L103.808 41.0346L104.732 41.4153ZM23.6446 32.5075L23.7161 33.5049L23.7625 33.5016L23.8084 33.494L23.6446 32.5075ZM6.48658 29.6027L6.04318 30.499L6.48658 29.6027ZM1.2266 32.8928L0.252077 33.1171L1.2266 32.8928ZM54.172 19.7178L54.7343 20.5447L54.172 19.7178ZM54.3065 19.7223L54.9894 20.4528L54.3065 19.7223ZM107.822 27.2443C107.176 32.1051 105.785 36.7181 103.823 40.9988L105.641 41.8319C107.68 37.3821 109.131 32.5777 109.805 27.5076L107.822 27.2443ZM90.1026 1C99.284 1 104.039 3.93503 106.387 8.42982C108.809 13.0661 108.833 19.6284 107.822 27.2443L109.805 27.5076C110.819 19.867 110.896 12.7414 108.16 7.50377C105.35 2.12471 99.7364 -1 90.1026 -1V1ZM54.9894 20.4528C60.6314 15.1777 66.6188 10.3 72.613 6.7457C78.6166 3.1859 84.5499 1 90.1026 1V-1C84.0456 -1 77.7503 1.37444 71.593 5.02539C65.4263 8.68186 59.3205 13.6653 53.6235 18.9919L54.9894 20.4528ZM53.6096 18.8909C42.7432 26.281 29.0902 30.5897 23.4808 31.521L23.8084 33.494C29.671 32.5207 43.6026 28.1152 54.7343 20.5447L53.6096 18.8909ZM23.5732 31.51C16.9166 31.9868 11.4068 30.921 6.92999 28.7063L6.04318 30.499C10.8892 32.8963 16.7646 34.0028 23.7161 33.5049L23.5732 31.51ZM0.252077 33.1171C5.93855 57.824 27.9914 76.2474 54.3369 76.2474V74.2474C28.9488 74.2474 7.68442 56.4926 2.20112 32.6685L0.252077 33.1171ZM54.3369 76.2474C77.4924 76.2474 97.3316 62.0148 105.657 41.7961L103.808 41.0346C95.7787 60.5334 76.6504 74.2474 54.3369 74.2474V76.2474ZM6.92999 28.7063C5.35503 27.9272 3.52681 28.1242 2.18581 28.9155C0.824991 29.7186 -0.179084 31.2438 0.252077 33.1171L2.20112 32.6685C2.01179 31.8459 2.39789 31.1127 3.20228 30.638C4.02649 30.1516 5.13851 30.0514 6.04318 30.499L6.92999 28.7063ZM54.9145 18.9878C54.5558 18.6567 54.0151 18.6151 53.6096 18.8909L54.7343 20.5447C54.3687 20.7933 53.8811 20.7558 53.5578 20.4573L54.9145 18.9878ZM53.6235 18.9919C53.9859 18.653 54.549 18.6504 54.9145 18.9878L53.5578 20.4573C53.963 20.8314 54.5875 20.8285 54.9894 20.4528L53.6235 18.9919Z" fill="white" mask="url(#path-1-inside-1)"/>
<mask id="path-3-inside-2" fill="white">
<path fill-rule="evenodd" clip-rule="evenodd" d="M4.78347 41.5097C2.7606 37.118 1.32348 32.3772 0.659317 27.3759C-1.3667 12.1195 0.554871 0 19.3689 0C30.9758 0 43.82 9.11752 55.1568 19.7168C55.1727 19.7316 55.1973 19.7317 55.2132 19.717C55.2274 19.7039 55.2487 19.7023 55.2646 19.7132C66.2641 27.1963 80.06 31.555 85.7968 32.5075C92.6134 32.9957 98.3143 31.9045 102.98 29.5894C105.46 28.3591 108.866 30.1787 108.246 32.8766C102.667 57.1494 81.0063 75.2457 55.1359 75.2457C32.4396 75.2457 12.9833 61.3175 4.78347 41.5097Z"/>
</mask>
<path fill-rule="evenodd" clip-rule="evenodd" d="M4.78347 41.5097C2.7606 37.118 1.32348 32.3772 0.659317 27.3759C-1.3667 12.1195 0.554871 0 19.3689 0C30.9758 0 43.82 9.11752 55.1568 19.7168C55.1727 19.7316 55.1973 19.7317 55.2132 19.717C55.2274 19.7039 55.2487 19.7023 55.2646 19.7132C66.2641 27.1963 80.06 31.555 85.7968 32.5075C92.6134 32.9957 98.3143 31.9045 102.98 29.5894C105.46 28.3591 108.866 30.1787 108.246 32.8766C102.667 57.1494 81.0063 75.2457 55.1359 75.2457C32.4396 75.2457 12.9833 61.3175 4.78347 41.5097Z" fill="url(#paint1_linear)"/>
<path d="M0.659317 27.3759L1.65061 27.2443L0.659317 27.3759ZM4.78347 41.5097L5.69175 41.0914L5.69994 41.1091L5.70743 41.1272L4.78347 41.5097ZM85.7968 32.5075L85.7254 33.5049L85.6789 33.5016L85.633 33.494L85.7968 32.5075ZM102.98 29.5894L103.425 30.4853L102.98 29.5894ZM55.2646 19.7132L54.7021 20.54L55.2646 19.7132ZM55.1568 19.7168L55.8398 18.9863L55.1568 19.7168ZM1.65061 27.2443C2.30078 32.1402 3.70805 36.7847 5.69175 41.0914L3.87518 41.9281C1.81316 37.4513 0.346176 32.6142 -0.331985 27.5075L1.65061 27.2443ZM19.3689 1C10.1881 1 5.43339 3.93501 3.08544 8.4298C0.66362 13.066 0.639244 19.6284 1.65061 27.2443L-0.331985 27.5075C-1.34663 19.867 -1.42323 12.7414 1.31274 7.50379C4.12258 2.12474 9.73563 -1 19.3689 -1V1ZM54.4739 20.4473C48.833 15.1733 42.847 10.297 36.8542 6.74384C30.852 3.18512 24.9203 1 19.3689 1V-1C25.4245 -1 31.7183 1.37364 37.8742 5.0235C44.0394 8.67889 50.1439 13.661 55.8398 18.9863L54.4739 20.4473ZM55.8271 18.8863C66.6939 26.2792 80.3505 30.5895 85.9606 31.521L85.633 33.494C79.7696 32.5205 65.8343 28.1134 54.7021 20.54L55.8271 18.8863ZM85.8683 31.51C92.5371 31.9877 98.0548 30.9169 102.536 28.6936L103.425 30.4853C98.5738 32.892 92.6897 34.0038 85.7254 33.5049L85.8683 31.51ZM109.221 33.1006C103.54 57.8149 81.4852 76.2457 55.1359 76.2457V74.2457C80.5275 74.2457 101.794 56.4839 107.272 32.6526L109.221 33.1006ZM55.1359 76.2457C32.0192 76.2457 12.2079 62.059 3.85951 41.8922L5.70743 41.1272C13.7587 60.5761 32.8599 74.2457 55.1359 74.2457V76.2457ZM102.536 28.6936C104.111 27.9122 105.941 28.1077 107.283 28.8983C108.646 29.7005 109.652 31.2258 109.221 33.1006L107.272 32.6526C107.461 31.8295 107.074 31.0961 106.268 30.6216C105.443 30.1355 104.33 30.0364 103.425 30.4853L102.536 28.6936ZM54.5348 18.9823C54.89 18.6543 55.4256 18.6132 55.8271 18.8863L54.7021 20.54C55.0718 20.7914 55.5648 20.7535 55.8916 20.4517L54.5348 18.9823ZM55.8398 18.9863C55.4733 18.6437 54.904 18.6413 54.5348 18.9823L55.8916 20.4517C55.4905 20.8221 54.872 20.8195 54.4739 20.4473L55.8398 18.9863Z" fill="white" mask="url(#path-3-inside-2)"/>
<defs>
<linearGradient id="paint0_linear" x1="15.7875" y1="62.2054" x2="157.34" y2="47.9949" gradientUnits="userSpaceOnUse">
<stop stop-color="#66CC99"/>
<stop offset="1" stop-color="#AFF1FF" stop-opacity="0.49"/>
</linearGradient>
<linearGradient id="paint1_linear" x1="121.427" y1="13.1073" x2="-9.60659" y2="-43.5125" gradientUnits="userSpaceOnUse">
<stop stop-color="#019EBF"/>
<stop offset="0.881983" stop-color="#B3FFF1" stop-opacity="0"/>
</linearGradient>
</defs>
</svg>
