<svg width="121" height="100" viewBox="0 0 121 100" fill="none" xmlns="http://www.w3.org/2000/svg">
<mask id="path-1-inside-1" fill="white">
<path fill-rule="evenodd" clip-rule="evenodd" d="M32.6706 -9.63261e-05C14.6279 -9.47487e-05 0.00136123 14.6264 0.00136281 32.6691C0.00136438 50.7119 14.6279 65.3384 32.6706 65.3384C34.049 65.3384 35.4075 65.253 36.7411 65.0873L60.3398 65.0873C63.1013 65.0873 65.3398 62.8487 65.3398 60.0873L65.3398 32.6691L65.3398 31.0768C65.3398 31.0658 65.3309 31.0568 65.3198 31.0568C65.3091 31.0568 65.3003 31.0483 65.2998 31.0377C64.4497 13.7529 50.1662 -9.78556e-05 32.6706 -9.63261e-05Z"/>
</mask>
<path fill-rule="evenodd" clip-rule="evenodd" d="M32.6706 -9.63261e-05C14.6279 -9.47487e-05 0.00136123 14.6264 0.00136281 32.6691C0.00136438 50.7119 14.6279 65.3384 32.6706 65.3384C34.049 65.3384 35.4075 65.253 36.7411 65.0873L60.3398 65.0873C63.1013 65.0873 65.3398 62.8487 65.3398 60.0873L65.3398 32.6691L65.3398 31.0768C65.3398 31.0658 65.3309 31.0568 65.3198 31.0568C65.3091 31.0568 65.3003 31.0483 65.2998 31.0377C64.4497 13.7529 50.1662 -9.78556e-05 32.6706 -9.63261e-05Z" fill="url(#paint0_linear)"/>
<path d="M36.7411 65.0873L36.7411 64.0873L36.6792 64.0873L36.6178 64.0949L36.7411 65.0873ZM65.2998 31.0377L66.2986 30.9885L65.2998 31.0377ZM1.00136 32.6691C1.00136 15.1787 15.1802 0.999905 32.6706 0.999904L32.6706 -1.0001C14.0756 -1.00009 -0.998639 14.0741 -0.998637 32.6691L1.00136 32.6691ZM32.6706 64.3384C15.1802 64.3384 1.00136 50.1596 1.00136 32.6691L-0.998637 32.6691C-0.998636 51.2642 14.0756 66.3384 32.6706 66.3384L32.6706 64.3384ZM36.6178 64.0949C35.325 64.2556 34.0077 64.3384 32.6706 64.3384L32.6706 66.3384C34.0904 66.3384 35.4901 66.2504 36.8644 66.0796L36.6178 64.0949ZM60.3398 64.0873L36.7411 64.0873L36.7411 66.0873L60.3398 66.0873L60.3398 64.0873ZM64.3398 60.0873C64.3398 62.2964 62.549 64.0873 60.3398 64.0873L60.3398 66.0873C63.6536 66.0873 66.3398 63.401 66.3398 60.0873L64.3398 60.0873ZM64.3398 32.6691L64.3398 60.0873L66.3398 60.0873L66.3398 32.6691L64.3398 32.6691ZM64.3398 31.0768L64.3398 32.6691L66.3398 32.6691L66.3398 31.0768L64.3398 31.0768ZM32.6706 0.999904C49.6304 0.999902 63.477 14.3319 64.301 31.0868L66.2986 30.9885C65.4224 13.1739 50.7021 -1.0001 32.6706 -1.0001L32.6706 0.999904ZM65.3198 30.0568C65.8489 30.0568 66.2733 30.4732 66.2986 30.9885L64.301 31.0868C64.3274 31.6234 64.7694 32.0568 65.3198 32.0568L65.3198 30.0568ZM66.3398 31.0768C66.3398 30.5135 65.8832 30.0568 65.3198 30.0568L65.3198 32.0568C64.7786 32.0568 64.3398 31.618 64.3398 31.0768L66.3398 31.0768Z" fill="white" mask="url(#path-1-inside-1)"/>
<mask id="path-3-inside-2" fill="white">
<path fill-rule="evenodd" clip-rule="evenodd" d="M65.3372 97.755C83.3799 97.755 98.0064 83.1285 98.0064 65.0857C98.0064 47.5036 84.1172 33.1655 66.7121 32.4449C66.7045 32.4446 66.6984 32.4383 66.6984 32.4307C66.6984 32.4229 66.6921 32.4165 66.6842 32.4165H65.3372H37.668C34.9065 32.4165 32.668 34.6551 32.668 37.4165V65.0857V66.4328C32.668 66.4406 32.6743 66.447 32.6822 66.447C32.6898 66.447 32.6961 66.453 32.6964 66.4607C33.417 83.8657 47.7551 97.755 65.3372 97.755Z"/>
</mask>
<path fill-rule="evenodd" clip-rule="evenodd" d="M65.3372 97.755C83.3799 97.755 98.0064 83.1285 98.0064 65.0857C98.0064 47.5036 84.1172 33.1655 66.7121 32.4449C66.7045 32.4446 66.6984 32.4383 66.6984 32.4307C66.6984 32.4229 66.6921 32.4165 66.6842 32.4165H65.3372H37.668C34.9065 32.4165 32.668 34.6551 32.668 37.4165V65.0857V66.4328C32.668 66.4406 32.6743 66.447 32.6822 66.447C32.6898 66.447 32.6961 66.453 32.6964 66.4607C33.417 83.8657 47.7551 97.755 65.3372 97.755Z" fill="url(#paint1_linear)"/>
<path d="M32.6964 66.4607L31.6972 66.502L32.6964 66.4607ZM66.7121 32.4449L66.7535 31.4458L66.7121 32.4449ZM97.0064 65.0857C97.0064 82.5762 82.8276 96.755 65.3372 96.755V98.755C83.9322 98.755 99.0064 83.6807 99.0064 65.0857H97.0064ZM66.6708 33.4441C83.5423 34.1426 97.0064 48.042 97.0064 65.0857H99.0064C99.0064 46.9652 84.692 32.1884 66.7535 31.4458L66.6708 33.4441ZM65.3372 33.4165H66.6842V31.4165H65.3372V33.4165ZM37.668 33.4165H65.3372V31.4165H37.668V33.4165ZM33.668 37.4165C33.668 35.2074 35.4588 33.4165 37.668 33.4165V31.4165C34.3543 31.4165 31.668 34.1028 31.668 37.4165H33.668ZM33.668 65.0857V37.4165H31.668V65.0857H33.668ZM33.668 66.4328V65.0857H31.668V66.4328H33.668ZM65.3372 96.755C48.2935 96.755 34.394 83.2908 33.6955 66.4193L31.6972 66.502C32.4399 84.4406 47.2167 98.755 65.3372 98.755V96.755ZM32.6822 67.447C32.1471 67.447 31.7188 67.0236 31.6972 66.502L33.6955 66.4193C33.6733 65.8825 33.2325 65.447 32.6822 65.447V67.447ZM31.668 66.4328C31.668 66.9929 32.122 67.447 32.6822 67.447V65.447C33.2266 65.447 33.668 65.8883 33.668 66.4328H31.668ZM67.6984 32.4307C67.6984 31.8706 67.2444 31.4165 66.6842 31.4165V33.4165C66.1398 33.4165 65.6984 32.9752 65.6984 32.4307H67.6984ZM66.7535 31.4458C67.275 31.4674 67.6984 31.8955 67.6984 32.4307H65.6984C65.6984 32.9811 66.134 33.4218 66.6708 33.4441L66.7535 31.4458Z" fill="white" mask="url(#path-3-inside-2)"/>
<defs>
<linearGradient id="paint0_linear" x1="56.5103" y1="11.3244" x2="-29.333" y2="17.3121" gradientUnits="userSpaceOnUse">
<stop stop-color="#66CC99"/>
<stop offset="1" stop-color="#AFF1FF" stop-opacity="0.49"/>
</linearGradient>
<linearGradient id="paint1_linear" x1="24.7606" y1="43.798" x2="110.818" y2="17.9618" gradientUnits="userSpaceOnUse">
<stop stop-color="#019EBF"/>
<stop offset="0.881983" stop-color="#B3FFF1" stop-opacity="0"/>
</linearGradient>
</defs>
</svg>
