<svg xmlns="http://www.w3.org/2000/svg" width="617.857" height="637.379" viewBox="0 0 617.857 637.379">
  <defs>
    <style>
      .cls-1 {
        fill: #fff;
      }
    </style>
  </defs>
  <g id="그룹_60" data-name="그룹 60" transform="translate(-190.053 -604.617)">
    <g id="그룹_34" data-name="그룹 34" transform="translate(190.053 604.618)">
      <g id="그룹_33" data-name="그룹 33">
        <path id="패스_51" data-name="패스 51" class="cls-1" d="M596.437,759.91c10.923-11.375,15.463-28.51,9.4-46.561-6.066-17.6-23.506-28.815-42.155-28.815h-.757l-4.857-11.07c-14.4-32-41.862-57.324-75.974-65.672A110.978,110.978,0,0,0,354.236,670.28l-203.829,457.7a64.373,64.373,0,0,0,8.067,66.014c12.6,16.341,33.038,24.678,53.664,24.678h293.3c8.958,17.453,29.6,28.071,51.6,21.224a41.63,41.63,0,0,0,27.082-27.033c9.032-29.157-12.522-56.215-40.617-56.215a42.8,42.8,0,0,0-38.066,23.348H209.257a25.865,25.865,0,0,1-23.506-36.248l203.829-457.7a72.184,72.184,0,0,1,85.652-40.006C496.615,652,513.506,668.51,522.5,688.807l5.846,13.169a43.348,43.348,0,0,0-9.556,27.448A43.8,43.8,0,0,0,530.165,759l-22.749,50.649-34.283-77.182A19.351,19.351,0,0,0,437.8,732.3L268.853,1100.529a19.165,19.165,0,0,0,1.367,18.5,19.636,19.636,0,0,0,16.073,8.946l75.986.305a68.527,68.527,0,0,0,62.476-40.349l2.429-5.6a.155.155,0,0,0,.159-.159c.293-.6.451-1.208.757-1.818L534.706,843.012c.305-.452.464-1.061.769-1.513l27.595-61.426L720.68,1134.1c8.836,19.844-.927,41.63-22.322,45.4a31.333,31.333,0,0,1-34.283-18.16l-114.5-257.066L528.347,951.6l100.4,225.517a70.241,70.241,0,0,0,64,41.557h0c50.5,0,84.3-51.979,63.793-98.137Zm-52.931,423.122a16.3,16.3,0,1,1-16.378,16.221A16.372,16.372,0,0,1,543.505,1183.032ZM389.422,1072.166a29.531,29.531,0,0,1-27,17.441l-45.951-.306L455.1,787.359l31.085,69.6ZM563.679,745.8a16.379,16.379,0,1,1,16.379-16.379A16.4,16.4,0,0,1,563.679,745.8Z" transform="translate(-144.768 -604.618)"/>
      </g>
    </g>
  </g>
</svg>
