<svg xmlns="http://www.w3.org/2000/svg" width="57" height="86.021" viewBox="0 0 57 86.021">
  <defs>
    <style>
      .cls-1 {
        fill: #019ebf;
      }

      .cls-2 {
        fill: #fff;
      }
    </style>
  </defs>
  <g id="marker" transform="translate(-932 -2098)">
    <path id="패스_62" data-name="패스 62" class="cls-1" d="M28.5,0A28.5,28.5,0,0,1,57,28.5c0,15.74-28.5,57.521-28.5,57.521S0,44.24,0,28.5A28.5,28.5,0,0,1,28.5,0Z" transform="translate(932 2098)"/>
    <g id="그룹_32" data-name="그룹 32" transform="translate(767 1700.043)">
      <g id="그룹_10" data-name="그룹 10" transform="translate(177.191 411.024)">
        <path id="패스_30" data-name="패스 30" class="cls-2" d="M200.434,419.015a2.323,2.323,0,0,0,.484-2.4,2.277,2.277,0,0,0-2.17-1.482h-.039l-.249-.57a5.915,5.915,0,0,0-3.91-3.379,5.71,5.71,0,0,0-6.579,3.215l-10.489,23.554a3.312,3.312,0,0,0,.415,3.4,3.465,3.465,0,0,0,2.762,1.27h15.094a2.209,2.209,0,0,0,2.656,1.092,2.14,2.14,0,0,0,1.393-1.391,2.2,2.2,0,0,0-4.049-1.691H180.51a1.332,1.332,0,0,1-1.21-1.865l10.489-23.554a3.714,3.714,0,0,1,4.408-2.059,3.861,3.861,0,0,1,2.432,2.2l.3.677a2.273,2.273,0,0,0,.094,2.935l-1.171,2.607-1.764-3.972a1,1,0,0,0-1.818-.008l-8.694,18.948a.985.985,0,0,0,.07.952,1.01,1.01,0,0,0,.828.461l3.91.015A3.527,3.527,0,0,0,191.6,435.9l.125-.288a.008.008,0,0,0,.008-.008c.015-.032.024-.063.039-.094l5.486-12.214c.016-.024.024-.055.039-.078l1.421-3.161,8.11,18.219a1.617,1.617,0,1,1-2.913,1.4l-5.892-13.228-1.093,2.435,5.167,11.605a3.616,3.616,0,0,0,3.293,2.138h0a3.592,3.592,0,0,0,3.283-5.05Zm-2.724,21.774a.839.839,0,1,1-.843.835A.842.842,0,0,1,197.711,440.789Zm-7.929-5.705a1.522,1.522,0,0,1-1.389.9l-2.365-.015,7.133-15.539,1.6,3.582Zm8.967-16.794a.843.843,0,1,1,.843-.843A.845.845,0,0,1,198.748,418.289Z" transform="translate(-177.191 -411.024)"/>
      </g>
    </g>
  </g>
</svg>
